<?xml version="1.0" standalone="no"?>
<!DOCTYPE svg PUBLIC "-//W3C//DTD SVG 1.1//EN" "http://www.w3.org/Graphics/SVG/1.1/DTD/svg11.dtd" >
<svg xmlns="http://www.w3.org/2000/svg" xmlns:xlink="http://www.w3.org/1999/xlink" version="1.1">
<metadata></metadata>
<defs>
<font id="corporate_sdemi" horiz-adv-x="1024" >
<font-face units-per-em="2048" ascent="1638" descent="-410" />
<missing-glyph horiz-adv-x="512" />
<glyph unicode="&#xfb01;" horiz-adv-x="1116" d="M33 813v160h133v61q0 101 10.5 157t36.5 97q72 113 233 113q98 0 191 -37v-170q-92 33 -154 33q-82 0 -104 -76q-10 -38 -10 -135v-43h235v-160h-233v-813h-205v813h-133zM741 1260q0 57 36.5 93t94.5 36q54 0 88.5 -35t34.5 -92q0 -56 -35.5 -91.5t-91.5 -35.5 q-55 0 -91 35.5t-36 89.5zM766 0v973h205v-973h-205z" />
<glyph unicode="&#xfb02;" horiz-adv-x="1116" d="M33 813v160h133v61q0 101 10.5 157t36.5 97q72 113 233 113q98 0 191 -37v-170q-92 33 -154 33q-82 0 -104 -76q-10 -38 -10 -135v-43h235v-160h-233v-813h-205v813h-133zM766 0v1374h205v-1374h-205z" />
<glyph unicode="&#xfb03;" horiz-adv-x="1716" d="M33 813v160h133v61q0 99 10 154.5t35 97.5q73 115 235 115q87 0 191 -37v-170q-95 33 -154 33q-82 0 -104 -76q-10 -38 -10 -135v-43h397v61q0 102 9.5 156.5t35.5 95.5q35 55 96.5 85t139.5 30q91 0 190 -37v-170q-92 33 -152 33q-84 0 -106 -76q-10 -38 -10 -135v-43 h235v-160h-233v-813h-205v813h-395v-813h-205v813h-133zM1341 1260q0 58 36 93.5t93 35.5q56 0 90.5 -35t34.5 -92q0 -55 -36.5 -91t-90.5 -36q-57 0 -92 34.5t-35 90.5zM1366 0v973h205v-973h-205z" />
<glyph unicode="&#xfb04;" horiz-adv-x="1716" d="M33 813v160h133v61q0 99 10 154.5t35 97.5q73 115 235 115q87 0 191 -37v-170q-95 33 -154 33q-82 0 -104 -76q-10 -38 -10 -135v-43h397v61q0 102 9.5 156.5t35.5 95.5q35 55 96.5 85t139.5 30q91 0 190 -37v-170q-92 33 -152 33q-84 0 -106 -76q-10 -38 -10 -135v-43 h235v-160h-233v-813h-205v813h-395v-813h-205v813h-133zM1366 0v1374h205v-1374h-205z" />
<glyph horiz-adv-x="0" />
<glyph horiz-adv-x="682" />
<glyph unicode=" "  horiz-adv-x="512" />
<glyph unicode="&#x09;" horiz-adv-x="512" />
<glyph unicode="&#xa0;" horiz-adv-x="512" />
<glyph unicode="!" horiz-adv-x="512" d="M117 119q0 58 41 98.5t100 40.5q57 0 96 -40t39 -99q0 -57 -39.5 -97t-97.5 -40q-57 0 -98 40.5t-41 96.5zM147 1335h218l-27 -915h-170z" />
<glyph unicode="&#x22;" horiz-adv-x="882" d="M184 1366h203l-37 -549h-131zM496 1366h202l-34 -549h-132z" />
<glyph unicode="#" horiz-adv-x="1228" d="M37 420l22 143h234l43 266h-234l23 144h233l62 393h166l-62 -393h275l61 393h166l-61 -393h237l-22 -144h-238l-43 -266h238l-23 -143h-237l-66 -420h-166l66 420h-275l-65 -420h-166l65 420h-233zM459 563h274l43 266h-274z" />
<glyph unicode="$" horiz-adv-x="1132" d="M82 426h199q6 -119 62.5 -185t170.5 -85v460q-187 63 -246 101q-155 96 -155 289q0 162 108.5 266t292.5 117v145h104v-148q172 -15 278 -117.5t105 -254.5h-198q-19 161 -185 192v-407q108 -37 158.5 -58t93.5 -47q181 -110 181 -315q0 -169 -119 -279.5t-314 -122.5 v-167h-104v167q-207 13 -321 132t-111 317zM315 1024q0 -92 88 -145q29 -15 111 -45v374q-78 -13 -127 -47q-32 -23 -52 -61t-20 -76zM618 154q103 9 163.5 64t60.5 140q0 49 -23.5 92.5t-64.5 71.5q-35 23 -136 60v-428z" />
<glyph unicode="%" horiz-adv-x="1325" d="M57 1049q0 138 80 232.5t197 94.5q115 0 193.5 -94.5t78.5 -232.5q0 -140 -78.5 -235t-195.5 -95q-116 0 -195.5 95.5t-79.5 234.5zM178 0l795 1366h174l-797 -1366h-172zM197 1049q0 -92 37.5 -149.5t97.5 -57.5t97.5 57.5t37.5 149.5q0 91 -37 147.5t-96 56.5 q-62 0 -99.5 -56t-37.5 -148zM717 319q0 138 80 233t198 95q114 0 193.5 -95.5t79.5 -232.5q0 -138 -80 -233.5t-195 -95.5q-117 0 -196.5 95.5t-79.5 233.5zM856 319q0 -91 38.5 -148.5t98.5 -57.5q59 0 97 58t38 148q0 89 -38 147t-97 58q-60 0 -98.5 -57t-38.5 -148z" />
<glyph unicode="&#x26;" horiz-adv-x="1200" d="M70 365q0 110 55.5 195.5t204.5 207.5q-94 122 -121 176.5t-27 124.5q0 123 88.5 200t229.5 77q134 0 215.5 -75t81.5 -198q0 -92 -47 -168.5t-164 -173.5l254 -344q25 47 34 95.5t9 133.5v41h161q3 -40 3 -59q0 -117 -23.5 -202t-77.5 -160l174 -236h-215l-74 109 q-71 -68 -146.5 -97.5t-182.5 -29.5q-192 0 -312 106.5t-120 276.5zM260 354q0 -92 69 -150.5t179 -58.5q130 0 219 95l-285 378q-102 -77 -142 -135.5t-40 -128.5zM369 1077q0 -47 19 -85.5t91 -133.5q146 119 146 221q0 51 -34 82t-91 31q-58 0 -94.5 -32t-36.5 -83z" />
<glyph unicode="'" horiz-adv-x="512" d="M156 1366h202l-36 -549h-129z" />
<glyph unicode="(" horiz-adv-x="602" d="M133 483q0 278 63 505.5t185 387.5h154q-106 -154 -162 -380.5t-56 -503.5q0 -577 218 -902h-154q-248 328 -248 893z" />
<glyph unicode=")" horiz-adv-x="604" d="M68 -410q217 320 217 887q0 588 -217 899h153q123 -158 186.5 -386t63.5 -507q0 -559 -250 -893h-153z" />
<glyph unicode="*" d="M193 1061l32 100l234 -76v246h104v-246l236 76l30 -100l-233 -76l145 -199l-86 -61l-143 199l-145 -199l-84 61l143 199z" />
<glyph unicode="+" horiz-adv-x="1132" d="M102 608v152h385v399h158v-399h385v-152h-385v-399h-158v399h-385z" />
<glyph unicode="," horiz-adv-x="501" d="M57 -387q70 83 119.5 194t54.5 195q-66 3 -102.5 36.5t-36.5 90.5q0 59 41.5 98t102.5 39q69 0 110 -52t41 -138q0 -101 -47 -209t-154 -254h-129z" />
<glyph unicode="-" horiz-adv-x="546" d="M0 440v150h547v-150h-547z" />
<glyph unicode="." horiz-adv-x="518" d="M121 119q0 58 41 98.5t100 40.5q57 0 96 -40t39 -99q0 -57 -39.5 -97t-97.5 -40q-57 0 -98 40.5t-41 96.5z" />
<glyph unicode="/" horiz-adv-x="1153" d="M76 -354l835 1720h168l-835 -1720h-168z" />
<glyph unicode="0" horiz-adv-x="1132" d="M102 666q0 330 123 511t346 181q214 0 336.5 -184t122.5 -504q0 -323 -123.5 -505.5t-341.5 -182.5q-217 0 -340 181.5t-123 502.5zM309 666q0 -123 23.5 -232.5t64.5 -181.5q55 -98 168 -98q115 0 170 98q88 157 88 418q0 123 -23.5 235t-64.5 182q-58 99 -166 99 q-118 0 -172 -99q-88 -151 -88 -421z" />
<glyph unicode="1" horiz-adv-x="1132" d="M346 995v119q134 5 206 58t95 167h141v-1339h-204v995h-238z" />
<glyph unicode="2" horiz-adv-x="1132" d="M154 0v164l30 37l131 159q201 243 287.5 356.5t119 176.5t32.5 119q0 75 -51 120.5t-136 45.5q-98 0 -155 -58t-66 -168h-178q2 192 108.5 299t298.5 107q179 0 284.5 -92.5t105.5 -249.5q0 -43 -5.5 -75t-28 -81t-55 -98t-99 -136t-147 -185t-212.5 -255h561v-186h-825z " />
<glyph unicode="3" horiz-adv-x="1132" d="M127 391h186q1 -110 65.5 -170.5t180.5 -60.5q112 0 178 62.5t66 168.5q0 72 -39 127t-105 78q-66 20 -184 20q-23 0 -41 -2v172q27 -2 51 -2q138 0 211.5 55t73.5 156q0 85 -54 135t-143 50q-184 0 -211 -197h-178q8 179 114.5 277t295.5 98q175 0 279 -94t104 -252 q0 -209 -209 -295q240 -76 240 -324q0 -184 -123 -298.5t-320 -114.5q-206 0 -322.5 109.5t-115.5 301.5z" />
<glyph unicode="4" horiz-adv-x="1132" d="M72 297v162l524 880h227v-874h238v-168h-234v-311h-206v311h-549zM266 465h365v635z" />
<glyph unicode="5" horiz-adv-x="1132" d="M135 352h193q15 -94 69.5 -143t145.5 -49q109 0 175 81t66 216q0 126 -60 201t-163 75q-69 0 -121 -29.5t-98 -95.5l-178 25l115 698h641l-15 -182h-473l-55 -320q56 40 105.5 57t111.5 17q181 0 293 -120.5t112 -315.5q0 -205 -122 -342q-128 -143 -326 -143 q-182 0 -294 99t-122 271z" />
<glyph unicode="6" horiz-adv-x="1132" d="M129 457q0 251 201 549q58 85 111 149.5t175 200.5h226q-230 -267 -350 -467q56 20 120 20q171 0 281.5 -127t110.5 -325q0 -211 -120 -343t-311 -132q-193 0 -318.5 134t-125.5 341zM336 453q0 -129 65.5 -213t165.5 -84q103 0 165.5 81t62.5 216q0 130 -64.5 212.5 t-165.5 82.5q-100 0 -164.5 -83t-64.5 -212z" />
<glyph unicode="7" horiz-adv-x="1132" d="M131 1137v194h870v-160l-641 -1171h-227l625 1137h-627z" />
<glyph unicode="8" horiz-adv-x="1132" d="M127 387q0 210 184 315q-153 90 -153 277q0 163 116 271t293 108q175 0 291.5 -108.5t116.5 -272.5q0 -185 -154 -275q185 -105 185 -317q0 -177 -124.5 -290t-316.5 -113q-191 0 -314.5 114t-123.5 291zM334 381q0 -101 65 -166t168 -65t166.5 63.5t63.5 167.5 q0 101 -64 167t-164 66q-103 0 -169 -65t-66 -168zM365 985q0 -91 56.5 -148t145.5 -57q91 0 146 56.5t55 148.5t-55 148.5t-144 56.5q-92 0 -148 -56.5t-56 -148.5z" />
<glyph unicode="9" horiz-adv-x="1132" d="M129 872q0 214 124 350t320 136q194 0 312.5 -131t118.5 -346q0 -200 -116.5 -414t-375.5 -492h-225q90 99 194 238t160 233q-59 -20 -121 -20q-169 0 -280 126.5t-111 319.5zM336 883q0 -130 64 -212.5t165 -82.5q103 0 166.5 82t63.5 215t-62 216t-162 83 q-104 0 -169.5 -84.5t-65.5 -216.5z" />
<glyph unicode=":" horiz-adv-x="518" d="M121 119q0 58 41 98.5t100 40.5q57 0 96 -40t39 -99q0 -57 -39.5 -97t-97.5 -40q-57 0 -98 40.5t-41 96.5zM121 834q0 58 41 98.5t100 40.5q57 0 96 -40t39 -99t-39.5 -98.5t-97.5 -39.5q-57 0 -98 41t-41 97z" />
<glyph unicode=";" horiz-adv-x="501" d="M57 -387q70 83 119.5 194t54.5 195q-66 3 -102.5 36.5t-36.5 90.5q0 59 41.5 98t102.5 39q69 0 110 -52t41 -138q0 -101 -47 -209t-154 -254h-129zM96 834q0 57 42 98t100 41q57 0 96 -39.5t39 -97.5q0 -60 -39 -100t-98 -40q-57 0 -98.5 41t-41.5 97z" />
<glyph unicode="&#x3c;" d="M68 608v170l886 432v-200l-673 -318l673 -317v-199z" />
<glyph unicode="=" horiz-adv-x="1132" d="M102 453v153h928v-153h-928zM102 762v153h928v-153h-928z" />
<glyph unicode="&#x3e;" d="M70 174v201l673 317l-673 320v198l886 -432v-172z" />
<glyph unicode="?" horiz-adv-x="849" d="M100 995q3 92 21.5 149.5t58.5 102.5q103 109 279 109q154 0 243 -81t89 -222q0 -83 -32 -141.5t-136 -168.5q-72 -75 -93.5 -116t-21.5 -105v-41v-43v-20h-191q-1 75 -0.5 112.5t6 80.5t11.5 61t25.5 50t38 52t57.5 62q74 77 97 116.5t23 89.5q0 61 -38 97.5t-103 36.5 q-155 0 -170 -181h-164zM274 119q0 58 41.5 98.5t100.5 40.5q57 0 96 -40t39 -97q0 -59 -39.5 -99t-97.5 -40q-57 0 -98.5 40.5t-41.5 96.5z" />
<glyph unicode="@" horiz-adv-x="1501" d="M66 674q0 152 54.5 285.5t149.5 228t228.5 149t285.5 54.5q188 0 337 -77.5t232 -216t83 -313.5q0 -127 -47 -241t-125.5 -182t-165.5 -68q-58 0 -99 36t-55 99q-94 -137 -248 -137q-132 0 -214.5 92t-82.5 238q0 170 105.5 290.5t253.5 120.5q149 0 215 -129l20 107h144 l-80 -414l-15 -94q0 -38 18 -64t46 -26q75 0 137 114.5t62 255.5q0 217 -143 349.5t-376 132.5q-250 0 -413.5 -167.5t-163.5 -424.5q0 -122 40.5 -229t115.5 -183q160 -160 442 -160q208 0 397 82l35 -129q-195 -80 -432 -80q-333 0 -533 191q-99 93 -153.5 227t-54.5 283z M563 621q0 -91 43.5 -142t120.5 -51q88 0 145.5 79t57.5 200q0 86 -40 134t-112 48q-91 0 -153 -77.5t-62 -190.5z" />
<glyph unicode="A" horiz-adv-x="1198" d="M31 0l465 1370h204l467 -1370h-219l-100 319h-498l-102 -319h-217zM406 502h387l-195 614z" />
<glyph unicode="B" horiz-adv-x="1167" d="M170 0v1366h311q129 0 199 -7t127 -26q100 -35 155.5 -116t55.5 -193q0 -117 -54 -187.5t-171 -107.5q152 -35 225.5 -119.5t73.5 -222.5q0 -124 -66.5 -220.5t-175.5 -131.5q-69 -22 -144 -28.5t-253 -6.5h-283zM377 174h127q117 0 172 6t94 25q48 22 75 73t27 121 q0 75 -33 127.5t-94 75.5q-41 15 -89 20t-148 5h-131v-453zM377 797h121q156 0 219 32q43 22 67.5 66.5t24.5 103.5q0 60 -26.5 104t-73.5 64q-65 25 -224 25h-108v-395z" />
<glyph unicode="C" horiz-adv-x="1228" d="M88 680q0 323 159.5 517t424.5 194q205 0 326.5 -114t140.5 -325h-187q-49 254 -280 254q-167 0 -265 -141.5t-98 -382.5t98 -381.5t267 -140.5q263 0 293 327h192q-15 -251 -137 -381.5t-342 -130.5q-270 0 -431 191.5t-161 513.5z" />
<glyph unicode="D" horiz-adv-x="1304" d="M170 0v1366h276q174 0 274.5 -16.5t178.5 -57.5q146 -78 232 -242t86 -366q0 -200 -83 -363.5t-223 -240.5q-89 -49 -184 -64.5t-309 -15.5h-248zM381 182h111q132 0 199 13.5t128 52.5q86 58 132 171t46 265q0 154 -50 267.5t-144 170.5q-62 39 -129.5 50.5t-233.5 11.5 h-59v-1002z" />
<glyph unicode="E" horiz-adv-x="1064" d="M170 0v1366h809v-182h-598v-385h549v-183h-549v-434h614v-182h-825z" />
<glyph unicode="F" horiz-adv-x="1032" d="M170 0v1366h809v-182h-598v-385h549v-183h-549v-616h-211z" />
<glyph unicode="G" horiz-adv-x="1294" d="M88 684q0 321 161 514t429 193q126 0 226 -44.5t165 -127.5q40 -54 60.5 -115t29.5 -150h-188q-46 252 -289 252q-174 0 -273.5 -139.5t-99.5 -384.5q0 -260 119 -406q91 -116 270 -116q160 0 299 88v278h-276v166h457v-565q-216 -152 -480 -152q-284 0 -447 189.5 t-163 519.5z" />
<glyph unicode="H" horiz-adv-x="1349" d="M170 0v1366h211v-565h590v565h211v-1366h-211v627h-590v-627h-211z" />
<glyph unicode="I" horiz-adv-x="550" d="M168 0v1366h213v-1366h-213z" />
<glyph unicode="J" horiz-adv-x="641" d="M-6 -51q105 0 158 14t79 49q22 26 27.5 71t5.5 191v1092h213v-1090q0 -169 -7.5 -229t-35.5 -113q-84 -163 -377 -163q-34 0 -63 2v176z" />
<glyph unicode="K" horiz-adv-x="1214" d="M170 0v1366h211v-1366h-211zM385 721l524 645h248l-532 -639l575 -727h-276z" />
<glyph unicode="L" horiz-adv-x="1015" d="M170 0v1366h217v-1184h588v-182h-805z" />
<glyph unicode="M" horiz-adv-x="1619" d="M170 0v1366h303l336 -1137l340 1137h301v-1366h-195v1133l-337 -1133h-218l-335 1133v-1133h-195z" />
<glyph unicode="N" horiz-adv-x="1368" d="M170 0v1366h227l600 -1044v1044h201v-1366h-219l-608 1042v-1042h-201z" />
<glyph unicode="O" horiz-adv-x="1351" d="M88 694q0 204 74 362.5t208 246.5t306 88q264 0 427 -195.5t163 -511.5q0 -317 -163 -513t-425 -196q-268 0 -429 196t-161 523zM309 690q0 -247 99 -389.5t270 -142.5q80 0 148 34t112 97q106 154 106 395q0 238 -100.5 381t-267.5 143q-166 0 -266.5 -141.5 t-100.5 -376.5z" />
<glyph unicode="P" horiz-adv-x="1120" d="M170 0v1366h274q152 0 234 -8.5t149 -30.5q115 -38 181.5 -141t66.5 -244q0 -137 -64 -237t-177 -138q-61 -22 -138 -29.5t-225 -7.5h-90v-530h-211zM381 713h90q108 0 155.5 4t90.5 16q67 20 103 74.5t36 136.5q0 157 -113 207q-43 19 -100.5 26t-173.5 7h-88v-471z" />
<glyph unicode="Q" horiz-adv-x="1384" d="M88 684q0 316 162.5 511.5t425.5 195.5q262 0 426 -195.5t164 -509.5q0 -205 -80 -387l276 -307h-250l-135 149q-158 -166 -401 -166q-262 0 -425 196t-163 513zM309 690q0 -244 100 -388t269 -144q80 0 148 34.5t110 98.5q108 154 108 393q0 113 -28.5 216t-79.5 175 q-91 133 -260 133q-167 0 -258 -133q-52 -73 -80.5 -174t-28.5 -211z" />
<glyph unicode="R" horiz-adv-x="1181" d="M170 0v1366h293q170 0 253 -11.5t152 -43.5q97 -46 152 -139t55 -211q0 -271 -260 -377l336 -584h-250l-309 549h-211v-549h-211zM381 731h94q109 0 157.5 5t90.5 20q64 23 98.5 76.5t34.5 130.5q0 136 -106 186q-43 22 -96 28.5t-189 6.5h-84v-453z" />
<glyph unicode="S" horiz-adv-x="1140" d="M84 442h205q24 -282 297 -282q110 0 177.5 51.5t67.5 134.5q0 88 -88 150q-45 31 -223 108q-214 90 -287 160q-104 101 -104 248q0 167 122.5 273t317.5 106q123 0 220.5 -46t154.5 -131q58 -84 66 -227h-203q-9 104 -73 161.5t-171 57.5q-97 0 -160 -50t-63 -126 t76 -121q32 -20 70.5 -37.5t162.5 -68.5q153 -65 215.5 -100.5t102.5 -81.5q82 -94 82 -240q0 -186 -126.5 -296t-340.5 -110q-233 0 -360.5 119t-137.5 348z" />
<glyph unicode="T" horiz-adv-x="991" d="M33 1184v182h928v-182h-361v-1184h-211v1184h-356z" />
<glyph unicode="U" horiz-adv-x="1333" d="M154 569v797h211v-793q0 -130 6.5 -182t29.5 -96q32 -64 102 -99.5t165 -35.5q110 0 183 46t101 134q19 64 19 233v793h211v-797q0 -151 -8.5 -216t-34.5 -124q-56 -120 -179.5 -187t-291.5 -67q-167 0 -291 67t-180 187q-26 61 -34.5 125t-8.5 215z" />
<glyph unicode="V" horiz-adv-x="1202" d="M20 1366h226l356 -1124l354 1124h222l-471 -1370h-220z" />
<glyph unicode="W" horiz-adv-x="1691" d="M27 1366h198l262 -1112l269 1112h182l266 -1112l266 1112h195l-340 -1370h-235l-246 973l-244 -973h-235z" />
<glyph unicode="X" horiz-adv-x="1157" d="M31 0l426 713l-396 653h242l279 -471l282 471h242l-404 -653l426 -713h-241l-305 520l-312 -520h-239z" />
<glyph unicode="Y" horiz-adv-x="1103" d="M10 1366h240l305 -588l301 588h236l-435 -811v-555h-211v555z" />
<glyph unicode="Z" horiz-adv-x="1017" d="M53 0v166l658 1022h-605v178h861v-147l-664 -1037h645v-182h-895z" />
<glyph unicode="[" horiz-adv-x="602" d="M170 -397v1763h362v-160h-184v-1442h184v-161h-362z" />
<glyph unicode="\" horiz-adv-x="1153" d="M76 1366h168l835 -1720h-168z" />
<glyph unicode="]" horiz-adv-x="602" d="M72 -238h184v1442h-184v162h362v-1763h-362v159z" />
<glyph unicode="^" d="M33 721l346 651h266l346 -651h-213l-266 491l-266 -491h-213z" />
<glyph unicode="_" d="M0 -117h1024v-182h-1024v182z" />
<glyph unicode="`" d="M172 1415h262l238 -309h-158z" />
<glyph unicode="a" horiz-adv-x="1013" d="M90 256q0 101 57 176t166 115q63 25 128 40t237 46v26q0 93 -39 132.5t-131 39.5q-164 0 -191 -133h-194q9 75 34 124.5t72 86.5q50 40 127 63t164 23q122 0 206.5 -39.5t115.5 -111.5q18 -40 24 -88t6 -142v-378q0 -99 6 -146t25 -90h-186q-17 64 -17 121 q-81 -144 -278 -144q-153 0 -242.5 75t-89.5 204zM297 279q0 -63 46 -102.5t120 -39.5q63 0 113 28.5t75 78.5q27 56 27 174v76q-213 -32 -297 -79.5t-84 -135.5z" />
<glyph unicode="b" horiz-adv-x="1085" d="M133 0q7 55 8.5 93.5t1.5 170.5v1110h201v-534q58 83 121.5 119t150.5 36q169 0 278.5 -143t109.5 -365q0 -224 -115 -367t-295 -143q-177 0 -264 156q-3 -78 -19 -133h-178zM342 481q0 -149 63 -241.5t164 -92.5q103 0 165.5 94.5t62.5 250.5q0 153 -58.5 242t-158.5 89 q-109 0 -173.5 -92t-64.5 -250z" />
<glyph unicode="c" horiz-adv-x="987" d="M80 483q0 235 121 375.5t323 140.5q164 0 260.5 -89.5t116.5 -258.5h-199q-15 97 -58.5 141t-123.5 44q-107 0 -170 -95t-63 -258t62.5 -254.5t172.5 -91.5q85 0 131 49.5t58 153.5h196q-10 -170 -114 -268.5t-271 -98.5q-199 0 -320.5 140.5t-121.5 369.5z" />
<glyph unicode="d" horiz-adv-x="1083" d="M82 477q0 227 111 372.5t284 145.5q88 0 148 -32.5t114 -110.5v522h201v-1075q0 -214 18 -299h-190q-12 50 -12 94q0 15 2 25v18q-49 -85 -114.5 -122.5t-160.5 -37.5q-181 0 -291 137t-110 363zM289 481q0 -155 59.5 -244.5t163.5 -89.5q106 0 168.5 92.5t62.5 247.5 q0 154 -61 246t-162 92q-109 0 -170 -91.5t-61 -252.5z" />
<glyph unicode="e" horiz-adv-x="1026" d="M80 475q0 238 122 381t324 143q194 0 308 -139t114 -375q0 -25 -2 -43h-663q6 -149 72 -226t186 -77q75 0 123.5 30t80.5 97l181 -12q-40 -135 -141 -208t-250 -73q-206 0 -330.5 137t-124.5 365zM289 592h452q-27 246 -219 246q-94 0 -151 -60.5t-82 -185.5z" />
<glyph unicode="f" horiz-adv-x="628" d="M33 813v160h133v61q0 101 10.5 157t36.5 97q72 113 233 113q98 0 191 -37v-170q-92 33 -154 33q-82 0 -104 -76q-10 -38 -10 -135v-43h235v-160h-233v-813h-205v813h-133z" />
<glyph unicode="g" horiz-adv-x="1040" d="M49 -131q0 86 48 141t153 92q-59 23 -83 49t-24 66q0 50 39 85.5t133 70.5q-92 43 -135 110t-43 168q0 155 104 247.5t279 92.5q75 0 170 -26l309 8v-148h-198q29 -29 47 -83t18 -111q0 -85 -36 -148t-103 -94q-49 -24 -91 -33t-196 -32q-46 -8 -73 -26.5t-27 -43.5 q0 -31 31 -41t172 -23q138 -14 202 -27.5t109 -39.5q57 -32 89 -91t32 -132q0 -149 -121.5 -231.5t-341.5 -82.5q-215 0 -339 76t-124 207zM225 -117q0 -67 77 -105t214 -38q126 0 195 37t69 104q0 146 -291 146q-127 0 -195.5 -37.5t-68.5 -106.5zM317 653q0 -77 51 -123.5 t134 -46.5q86 0 137 46.5t51 123.5q0 80 -51.5 131.5t-130.5 51.5q-85 0 -138 -50.5t-53 -132.5z" />
<glyph unicode="h" horiz-adv-x="1085" d="M145 0v1374h201v-512q109 133 281 133q89 0 165 -38t111 -101q26 -44 35.5 -106t9.5 -191v-559h-200v526q0 146 -29 205q-45 86 -154 86q-58 0 -108 -30.5t-78 -81.5q-33 -65 -33 -189v-516h-201z" />
<glyph unicode="i" horiz-adv-x="495" d="M121 1260q0 57 36 93t93 36q56 0 90.5 -35t34.5 -92q0 -56 -35.5 -91.5t-91.5 -35.5t-91.5 35t-35.5 90zM145 0v973h205v-973h-205z" />
<glyph unicode="j" horiz-adv-x="536" d="M-70 -205h31q162 0 207 86q15 30 17.5 63t4.5 169v860h205v-858q0 -160 -12.5 -228t-52.5 -125q-53 -75 -134 -108t-216 -33h-50v174zM168 1260q0 58 35 93.5t94 35.5q55 0 90 -35.5t35 -91.5q0 -54 -37 -90.5t-92 -36.5t-90 34.5t-35 90.5z" />
<glyph unicode="k" horiz-adv-x="1046" d="M145 0v1374h201v-1374h-201zM350 524l381 449h244l-385 -445l416 -528h-273z" />
<glyph unicode="l" horiz-adv-x="495" d="M145 0v1374h205v-1374h-205z" />
<glyph unicode="m" horiz-adv-x="1642" d="M121 973h194q21 -55 21 -131q100 153 289 153q197 0 274 -164q58 85 132.5 124.5t174.5 39.5q94 0 162 -35t100 -100q24 -48 29.5 -92.5t5.5 -187.5v-580h-200v578q0 75 -6 112t-21 62q-43 65 -146 65q-113 0 -169 -88q-35 -52 -35 -168v-561h-201v555q0 92 -4.5 126.5 t-18.5 61.5q-19 34 -58.5 54t-88.5 20q-64 0 -113 -29.5t-71 -80.5q-25 -57 -25 -154v-553h-201v709q0 129 -3.5 170t-20.5 94z" />
<glyph unicode="n" horiz-adv-x="1079" d="M119 973h194q18 -51 21 -133q103 155 293 155q92 0 166.5 -40t109.5 -109q25 -47 32 -99.5t7 -187.5v-559h-201v526q0 89 -5.5 132.5t-20.5 74.5q-43 84 -150 84q-59 0 -109.5 -29.5t-76.5 -80.5q-33 -62 -33 -189v-518h-201v633q0 184 -3 227.5t-23 112.5z" />
<glyph unicode="o" horiz-adv-x="1067" d="M80 494q0 220 128.5 362.5t326.5 142.5q199 0 325.5 -144t126.5 -370q0 -224 -127 -368t-325 -144q-201 0 -328 145.5t-127 375.5zM287 489q0 -160 67.5 -256t180.5 -96q110 0 177.5 95.5t67.5 252.5q0 158 -67.5 254.5t-177.5 96.5t-179 -96t-69 -251z" />
<glyph unicode="p" horiz-adv-x="1083" d="M127 973h190q19 -59 19 -127q50 77 115 113t155 36q179 0 288.5 -139.5t109.5 -366.5q0 -226 -109 -369t-281 -143q-84 0 -148 34t-120 108v-522h-201v1075q0 216 -18 301zM342 481q0 -149 64.5 -240t168.5 -91q106 0 164 87t58 248q0 158 -59.5 249t-162.5 91 q-106 0 -169.5 -93.5t-63.5 -250.5z" />
<glyph unicode="q" horiz-adv-x="1083" d="M82 479q0 232 111 374t294 142q181 0 263 -149q0 75 18 127h190q-18 -85 -18 -301v-1075h-201v520q-56 -75 -114.5 -107.5t-139.5 -32.5q-180 0 -291.5 139.5t-111.5 362.5zM289 483q0 -156 59.5 -244.5t163.5 -88.5q107 0 169 89.5t62 245.5q0 152 -63.5 246t-165.5 94 q-104 0 -164.5 -92t-60.5 -250z" />
<glyph unicode="r" horiz-adv-x="722" d="M131 973h193q14 -71 14 -150q0 -30 -2 -55q106 227 266 227q40 0 96 -20v-203q-76 43 -141 43q-119 0 -176 -133q-35 -77 -35 -238v-444h-203v657q0 151 -2 199t-10 117z" />
<glyph unicode="s" horiz-adv-x="948" d="M84 313h190q7 -93 57.5 -137.5t147.5 -44.5q83 0 130.5 36t47.5 99q0 34 -15 55.5t-52 38.5q-45 23 -207 72q-146 43 -205 103t-59 165q0 135 99 217t263 82q169 0 264.5 -80t104.5 -231h-195q-11 80 -53 117t-123 37q-72 0 -116 -34t-44 -89q0 -53 41 -79.5t191 -70.5 q114 -32 169.5 -59t84.5 -64q55 -64 55 -163q0 -145 -100 -227.5t-275 -82.5q-195 0 -298 87t-103 253z" />
<glyph unicode="t" horiz-adv-x="690" d="M51 813l2 160h154l6 278h195l-5 -278h213l-2 -160h-215l-6 -430l-2 -55v-27q0 -81 23 -113t82 -32q65 0 143 32l-2 -170q-99 -38 -197 -38q-162 0 -225 108q-31 55 -31 174q0 10 4 121l13 430h-150z" />
<glyph unicode="u" horiz-adv-x="1081" d="M139 393v580h201v-574q0 -131 37 -180q50 -63 145 -63q58 0 105 27t75 77q33 59 33 178v535h201v-674q0 -164 3 -201.5t22 -97.5h-193q-17 49 -20 121q-50 -75 -113.5 -109.5t-153.5 -34.5q-98 0 -177.5 42t-119.5 114q-45 80 -45 260z" />
<glyph unicode="v" horiz-adv-x="960" d="M20 973h211l248 -754l246 754h211l-346 -981h-223z" />
<glyph unicode="w" horiz-adv-x="1449" d="M29 973h204l193 -727l215 727h166l213 -727l197 727h202l-286 -981h-209l-203 665l-201 -665h-209z" />
<glyph unicode="x" horiz-adv-x="968" d="M6 0l356 518l-307 455h240l188 -307l193 307h242l-310 -455l353 -518h-244l-234 358l-233 -358h-244z" />
<glyph unicode="y" horiz-adv-x="964" d="M33 973h213l239 -774l246 774h211l-326 -926q-67 -191 -100 -254t-94 -112q-113 -91 -301 -91q-41 0 -66 2v175q16 2 37 2l14 -2h15q49 0 101 17q58 21 85 56q33 42 66 131z" />
<glyph unicode="z" horiz-adv-x="843" d="M45 0v156l502 651h-455v166h701v-150l-510 -657h508v-166h-746z" />
<glyph unicode="{" horiz-adv-x="602" d="M92 418v131q62 15 87.5 57t25.5 129v320q0 88 10.5 139t36.5 88q67 94 246 94h80v-157q-50 -1 -78 -3t-53 -10t-35 -18t-18 -33.5t-9.5 -49.5t-1.5 -73v-289q0 -108 -24.5 -161t-96.5 -99q72 -46 96.5 -98.5t24.5 -159.5v-288q0 -46 2 -73.5t10 -50.5t19.5 -34.5t36 -19 t52.5 -9.5t75 -2v-156q-35 -2 -64 -2q-175 0 -242 69.5t-67 252.5v319q0 88 -26 131t-87 56z" />
<glyph unicode="|" d="M412 -342v1708h200v-1708h-200z" />
<glyph unicode="}" horiz-adv-x="602" d="M25 -252h28q129 0 152 57q14 29 14 132v288q0 107 24.5 159.5t96.5 98.5q-72 46 -96.5 98.5t-24.5 161.5v289q0 47 -1 73t-9 50t-18 33.5t-35 17.5t-53 10t-78 3v157h79q106 0 170 -30.5t95 -96.5q28 -63 28 -194v-320q0 -88 25.5 -130t87.5 -56v-131q-61 -13 -87 -56 t-26 -131v-319q0 -183 -67 -252.5t-242 -69.5q-28 0 -63 2v156z" />
<glyph unicode="~" horiz-adv-x="1366" d="M188 496q52 109 78 145q85 113 215 113q76 0 224 -64q95 -39 122.5 -47t65.5 -8q56 0 90.5 25.5t77.5 97.5l117 -70q-38 -78 -67 -118.5t-69 -69.5q-78 -60 -176 -60q-40 0 -92.5 17.5t-198.5 77.5q-61 24 -110 24q-50 0 -86 -30.5t-76 -106.5z" />
<glyph unicode="&#xa1;" horiz-adv-x="512" d="M117 836q0 56 41 96.5t98 40.5q58 0 97.5 -39.5t39.5 -97.5q0 -60 -39.5 -100t-99.5 -40q-56 0 -96.5 41.5t-40.5 98.5zM147 -381l27 916h170l21 -916h-218z" />
<glyph unicode="&#xa2;" horiz-adv-x="1132" d="M152 694q0 215 100 351t280 165v170h105v-170q145 -12 235 -103t105 -239h-203q-9 75 -41 115t-98 59v-680q130 34 147 195h199q-6 -146 -103.5 -248t-242.5 -112v-197h-107v199q-178 29 -277 160t-99 335zM356 692q0 -129 45.5 -214t130.5 -113v673 q-85 -34 -130.5 -123.5t-45.5 -222.5z" />
<glyph unicode="&#xa3;" horiz-adv-x="1132" d="M80 -12q121 142 196 641h-178v153h207q34 189 47 244.5t39 124.5q46 124 121.5 179.5t200.5 55.5q152 0 226.5 -76t86.5 -245h-180q-7 79 -36.5 112t-92.5 33q-60 0 -92 -30.5t-54.5 -110.5t-50.5 -256l-4 -31h311v-151h-340q-44 -309 -143 -469q97 28 215 28 q57 0 129 -4l70 -2q73 0 92 31q30 45 33 137h168q0 -77 -6 -117t-23 -85q-61 -158 -238 -158q-71 0 -227 12q-78 4 -154 4q-154 0 -323 -20z" />
<glyph unicode="&#xa4;" horiz-adv-x="1366" d="M76 1243l112 113l203 -203q140 96 293 96t287 -94l200 201l113 -113l-201 -201q53 -74 76 -140.5t23 -145.5q0 -81 -23 -148.5t-74 -138.5l203 -203l-110 -112l-203 202q-137 -98 -291 -98q-143 0 -293 98l-201 -200l-110 110l199 203q-97 129 -97 285q0 150 99 286z M369 754q0 -127 93.5 -221.5t219.5 -94.5q127 0 220 94t93 222t-91.5 221.5t-217.5 93.5q-131 0 -224 -92.5t-93 -222.5z" />
<glyph unicode="&#xa5;" horiz-adv-x="1132" d="M39 1366h237l293 -590l293 590h234l-242 -471h186v-131h-254l-77 -150h331v-131h-364v-483h-211v483h-371v131h338l-80 150h-258v131h191z" />
<glyph unicode="&#xa6;" d="M412 313h200v-655h-200v655zM412 672v694h200v-694h-200z" />
<glyph unicode="&#xa7;" d="M102 37h170q15 -114 66.5 -161.5t157.5 -47.5q90 0 140 41t50 115q0 44 -23 76t-81 69q-29 17 -224 123q-131 69 -192.5 143.5t-61.5 163.5q0 150 181 264q-70 57 -98.5 108t-28.5 122q0 132 100.5 218.5t255.5 86.5q172 0 265.5 -93t101.5 -270h-166 q-13 106 -59.5 152.5t-137.5 46.5q-79 0 -126.5 -38t-47.5 -101q0 -57 41 -92q21 -19 47 -34.5t139 -76.5q206 -111 256 -156q88 -79 88 -190q0 -168 -180 -270q74 -56 105.5 -114.5t31.5 -139.5q0 -151 -98 -234.5t-276 -83.5q-193 0 -293.5 95t-102.5 278zM289 569 q0 -61 58.5 -109.5t252.5 -148.5q133 80 133 174q0 73 -86 127q-123 75 -223 127q-135 -77 -135 -170z" />
<glyph unicode="&#xa8;" d="M211 1268q0 53 36 88t91 35q52 0 86.5 -35t34.5 -88q0 -52 -36 -88.5t-87 -36.5q-52 0 -88.5 37t-36.5 88zM565 1268q0 52 36.5 88.5t88.5 36.5q50 0 87.5 -37.5t37.5 -87.5t-38 -87.5t-89 -37.5t-87 36.5t-36 88.5z" />
<glyph unicode="&#xa9;" horiz-adv-x="1572" d="M78 684q0 146 56.5 277t152 226t228.5 150.5t280 55.5q187 0 348 -96t255.5 -259.5t94.5 -353.5q0 -115 -36 -223.5t-101.5 -195.5t-152.5 -152.5t-195.5 -101.5t-223.5 -36q-143 0 -273.5 56.5t-225 151.5t-151 226.5t-56.5 274.5zM188 682q0 -122 47.5 -234.5 t128 -194.5t191 -130.5t231.5 -48.5q96 0 187 31t164 88t128.5 132t86 168t30.5 191q0 122 -47 234.5t-126.5 194.5t-188 130.5t-227.5 48.5q-125 0 -237 -48t-192.5 -129.5t-128 -194.5t-47.5 -238zM442 690q0 194 102 311t271 117q135 0 213.5 -70.5t89.5 -199.5h-129 q-15 78 -56.5 113.5t-115.5 35.5q-104 0 -164.5 -82t-60.5 -223q0 -140 60.5 -220.5t166.5 -80.5q163 0 178 193h131q-5 -146 -87.5 -230t-221.5 -84q-170 0 -273.5 115t-103.5 305z" />
<glyph unicode="&#xaa;" d="M227 567v95h553v-95h-553zM246 934q0 126 139 180q40 17 68.5 24.5t160.5 35.5v16q0 86 -104 86q-54 0 -82.5 -21t-34.5 -67h-129q6 94 71.5 144t182.5 50q75 0 128.5 -24t76.5 -68q13 -24 16.5 -49t3.5 -92v-227q0 -95 21 -146h-125q-9 34 -12 64q-32 -41 -72 -58.5 t-100 -17.5q-97 0 -153 46t-56 124zM381 948q0 -37 26 -58.5t72 -21.5q72 0 103.5 38.5t31.5 125.5v47q-133 -28 -183 -56t-50 -75z" />
<glyph unicode="&#xab;" horiz-adv-x="897" d="M70 477l204 498h164l-172 -498l172 -477h-164zM399 477l205 498h164l-172 -498l172 -477h-164z" />
<glyph unicode="&#xac;" d="M68 358v189h886v-547h-200v358h-686z" />
<glyph unicode="&#xad;" horiz-adv-x="546" d="M0 440v150h547v-150h-547z" />
<glyph unicode="&#xae;" horiz-adv-x="1572" d="M78 682q0 146 56.5 278t152 227t228.5 150.5t280 55.5q187 0 348 -96t255.5 -259.5t94.5 -353.5q0 -191 -95 -354.5t-258 -259t-354 -95.5q-143 0 -274 56.5t-226 151.5t-151.5 225.5t-56.5 273.5zM182 682q0 -125 48 -238.5t128.5 -195.5t192.5 -131t235 -49 q164 0 303 82t219.5 224t80.5 310q0 165 -80.5 307t-218 225.5t-297.5 83.5q-167 0 -307.5 -81.5t-222 -224t-81.5 -312.5zM522 270v822h191q103 0 156 -7t98 -26q62 -28 96.5 -84t34.5 -129q0 -161 -158 -225l211 -351h-168l-195 326h-122v-326h-144zM666 715h53 q112 0 153 14q78 28 78 119q0 77 -61 104q-28 14 -59 17.5t-117 3.5h-47v-258z" />
<glyph unicode="&#xaf;" d="M223 1196v131h576v-131h-576z" />
<glyph unicode="&#xb0;" d="M211 1100q0 120 89 205.5t214 85.5t213 -86t88 -209q0 -121 -89 -209t-212 -88q-127 0 -215 87.5t-88 213.5zM338 1098q0 -75 50.5 -125.5t125.5 -50.5q71 0 123.5 52t52.5 122q0 71 -52.5 121.5t-125.5 50.5q-72 0 -123 -50t-51 -120z" />
<glyph unicode="&#xb1;" horiz-adv-x="1132" d="M102 27v153h928v-153h-928zM102 639v152h385v399h158v-399h385v-152h-385v-348h-158v348h-385z" />
<glyph unicode="&#xb2;" horiz-adv-x="739" d="M113 532v107q8 9 102 117q173 198 223.5 268t50.5 113q0 40 -31.5 66t-80.5 26q-124 0 -133 -133h-121q0 120 68 186t192 66q110 0 179 -57.5t69 -151.5q0 -50 -22.5 -95.5t-87.5 -126t-226 -262.5h344v-123h-526z" />
<glyph unicode="&#xb3;" horiz-adv-x="739" d="M82 784h125q0 -64 39 -99.5t110 -35.5q66 0 106 35.5t40 93.5q0 66 -48 97.5t-149 31.5q-19 0 -33 -2v115q16 -2 37 -2q83 0 128.5 31t45.5 88q0 45 -32 72.5t-86 27.5q-58 0 -88.5 -27t-38.5 -86h-121q3 110 70.5 170t189.5 60q111 0 178.5 -56.5t67.5 -150.5 q0 -59 -31.5 -104t-89.5 -70q139 -48 139 -193q0 -109 -79 -178.5t-202 -69.5q-134 0 -206.5 66t-71.5 186z" />
<glyph unicode="&#xb4;" d="M387 1106l238 309h262l-342 -309h-158z" />
<glyph unicode="&#xb5;" d="M76 -348v1331h200v-541q0 -104 17 -159t61 -95q65 -59 156 -59q109 0 178 88q34 46 47 98.5t13 141.5v526h200v-983h-200v147q-44 -91 -100.5 -130.5t-141.5 -39.5q-77 0 -131.5 33t-98.5 107v-465h-200z" />
<glyph unicode="&#xb6;" horiz-adv-x="1271" d="M49 1004q0 105 46.5 186.5t131.5 124.5q105 51 295 51h602v-158h-135v-1403h-174v1403h-194v-1403h-175v846h-26q-166 0 -268.5 98t-102.5 255z" />
<glyph unicode="&#xb7;" horiz-adv-x="518" d="M121 512q0 57 41.5 98t99.5 41q57 0 96 -40t39 -99q0 -58 -39.5 -97.5t-97.5 -39.5q-57 0 -98 40t-41 97z" />
<glyph unicode="&#xb8;" d="M328 -328q87 -34 121 -34q47 0 77.5 29t30.5 73q0 37 -25 66t-65 36q-10 2 -57 2q-19 0 -31 -2l59 158h119l-41 -102q89 -15 135.5 -60t46.5 -114q0 -80 -58.5 -134.5t-145.5 -54.5q-76 0 -166 49v88z" />
<glyph unicode="&#xb9;" horiz-adv-x="739" d="M160 1120v82q86 1 130 32.5t58 100.5h98v-803h-139v588h-147z" />
<glyph unicode="&#xba;" d="M227 1073q0 137 79.5 223t205.5 86t205.5 -86t79.5 -223t-81 -224t-208 -87q-122 0 -201.5 88t-79.5 223zM236 567v95h552v-95h-552zM362 1073q0 -89 42 -147t106 -58q68 0 110 56.5t42 148.5q0 91 -41.5 147t-108.5 56t-108.5 -56t-41.5 -147z" />
<glyph unicode="&#xbb;" horiz-adv-x="897" d="M131 0l172 500l-172 475h164l205 -475l-205 -500h-164zM461 0l172 500l-172 475h164l204 -475l-204 -500h-164z" />
<glyph unicode="&#xbc;" horiz-adv-x="1744" d="M160 1120v82q85 2 130 33t58 100h98v-803h-139v588h-147zM403 0l775 1331h165l-774 -1331h-166zM1061 176v103l330 524h149v-516h148v-111h-146v-184h-139v184h-342zM1198 287h211v350z" />
<glyph unicode="&#xbd;" horiz-adv-x="1744" d="M160 1120v82q85 2 130 33t58 100h98v-803h-139v588h-147zM403 0l775 1331h165l-774 -1331h-166zM1118 0v106q5 5 18.5 21t37 42.5t47.5 53.5q172 197 223 267.5t51 113.5q0 40 -32 66t-81 26q-124 0 -133 -133h-121q0 120 68 186t190 66q112 0 181 -57.5t69 -151.5 q0 -48 -24.5 -97t-91.5 -132t-220 -254h345v-123h-527z" />
<glyph unicode="&#xbe;" horiz-adv-x="1744" d="M82 784h125q0 -64 39 -99.5t110 -35.5q66 0 106 35.5t40 93.5q0 66 -48 97.5t-149 31.5q-19 0 -33 -2v115q16 -2 37 -2q83 0 128.5 31t45.5 88q0 45 -32 72.5t-86 27.5q-58 0 -88.5 -27t-38.5 -86h-121q3 110 70.5 170t189.5 60q111 0 178.5 -56.5t67.5 -150.5 q0 -59 -31.5 -104t-89.5 -70q139 -48 139 -193q0 -109 -79 -178.5t-202 -69.5q-134 0 -206.5 66t-71.5 186zM403 0l775 1331h165l-774 -1331h-166zM1061 176v103l330 524h149v-516h148v-111h-146v-184h-139v184h-342zM1198 287h211v350z" />
<glyph unicode="&#xbf;" horiz-adv-x="849" d="M84 -100q0 83 32.5 142.5t135.5 168.5q79 82 98 125t19 141v39l-2 21h190q1 -76 0.5 -112.5t-5.5 -80t-11 -61.5t-25 -49.5t-37.5 -52.5t-56.5 -62q-75 -78 -99 -118.5t-24 -88.5q0 -61 38.5 -97t104.5 -36q156 0 168 180h164q-3 -94 -21 -151t-59 -101 q-102 -108 -278 -108q-153 0 -242.5 81.5t-89.5 219.5zM322 836q0 55 41.5 96t97.5 41q60 0 98.5 -39t38.5 -98q0 -61 -38.5 -100.5t-98.5 -39.5q-55 0 -97 42t-42 98z" />
<glyph unicode="&#xc0;" horiz-adv-x="1198" d="M31 0l465 1370h204l467 -1370h-219l-100 319h-498l-102 -319h-217zM166 1794h262l313 -309h-194zM406 502h387l-195 614z" />
<glyph unicode="&#xc1;" horiz-adv-x="1198" d="M31 0l465 1370h204l467 -1370h-219l-100 319h-498l-102 -319h-217zM406 502h387l-195 614zM457 1485l313 309h262l-381 -309h-194z" />
<glyph unicode="&#xc2;" horiz-adv-x="1198" d="M31 0l465 1370h204l467 -1370h-219l-100 319h-498l-102 -319h-217zM231 1499l275 281h186l275 -281h-195l-172 170l-172 -170h-197zM406 502h387l-195 614z" />
<glyph unicode="&#xc3;" horiz-adv-x="1198" d="M31 0l465 1370h204l467 -1370h-219l-100 319h-498l-102 -319h-217zM262 1540q29 109 78 159t125 50q54 0 147 -41q95 -45 136 -45q35 0 60.5 24t45.5 76l96 -30q-20 -100 -73 -158.5t-123 -58.5q-61 0 -152 38q-80 36 -98 42t-41 6q-75 0 -96 -93zM406 502h387l-195 614z " />
<glyph unicode="&#xc4;" horiz-adv-x="1198" d="M31 0l465 1370h204l467 -1370h-219l-100 319h-498l-102 -319h-217zM279 1638q0 59 38.5 97.5t96.5 38.5q55 0 94 -39t39 -95q0 -57 -39 -96t-96 -39q-56 0 -94.5 38.5t-38.5 94.5zM406 502h387l-195 614zM651 1638q0 57 39.5 96.5t97.5 39.5q55 0 93.5 -39t38.5 -95 q0 -58 -38.5 -96.5t-95.5 -38.5t-96 38.5t-39 94.5z" />
<glyph unicode="&#xc5;" horiz-adv-x="1198" d="M31 0l465 1370h204l467 -1370h-219l-100 319h-498l-102 -319h-217zM403 1657q0 82 58 139t141 57q80 0 136.5 -57t56.5 -139q0 -83 -56.5 -140t-138.5 -57t-139.5 57.5t-57.5 139.5zM406 502h387l-195 614zM500 1657q0 -43 28.5 -72t71.5 -29q41 0 69.5 29t28.5 72 q0 41 -28.5 70.5t-69.5 29.5t-70.5 -29.5t-29.5 -70.5z" />
<glyph unicode="&#xc6;" horiz-adv-x="1814" d="M35 0l799 1366h899v-182h-582v-387h532v-183h-532v-432h594v-182h-809v319h-487l-185 -319h-229zM553 502h383v672z" />
<glyph unicode="&#xc7;" horiz-adv-x="1228" d="M88 682q0 321 160.5 515t425.5 194q204 0 325 -114t140 -325h-187q-50 254 -280 254q-167 0 -265 -141.5t-98 -384.5q0 -239 98.5 -379.5t264.5 -140.5q265 0 295 327h192q-11 -239 -133 -373.5t-334 -138.5l-33 -94q102 -17 154.5 -68t52.5 -132q0 -94 -65.5 -155 t-165.5 -61q-46 0 -86 11.5t-100 42.5v102q88 -39 135 -39q54 0 87.5 32.5t33.5 84.5q0 54 -39.5 86.5t-104.5 32.5q-12 0 -22 -2l-35 -4l59 176q-124 18 -239 108q-115 91 -175.5 241t-60.5 345z" />
<glyph unicode="&#xc8;" horiz-adv-x="1064" d="M164 0v1366h809v-182h-598v-385h549v-183h-549v-434h614v-182h-825zM172 1794h262l314 -309h-195z" />
<glyph unicode="&#xc9;" horiz-adv-x="1064" d="M170 0v1366h809v-182h-598v-385h549v-183h-549v-434h614v-182h-825zM395 1485l314 309h262l-381 -309h-195z" />
<glyph unicode="&#xca;" horiz-adv-x="1064" d="M170 0v1366h809v-182h-598v-385h549v-183h-549v-434h614v-182h-825zM209 1499l274 281h185l274 -281h-192l-175 170l-172 -170h-194z" />
<glyph unicode="&#xcb;" horiz-adv-x="1064" d="M170 0v1366h809v-182h-598v-385h549v-183h-549v-434h614v-182h-825zM254 1638q0 57 40 96.5t97 39.5q56 0 93.5 -38.5t37.5 -95.5q0 -58 -38 -96.5t-95 -38.5q-55 0 -95 39.5t-40 93.5zM629 1638q0 58 39 97t96 39t95 -39t38 -95q0 -57 -38.5 -96t-94.5 -39 q-57 0 -96 38.5t-39 94.5z" />
<glyph unicode="&#xcc;" horiz-adv-x="550" d="M-98 1794h248l258 -309h-181zM168 0v1366h213v-1366h-213z" />
<glyph unicode="&#xcd;" horiz-adv-x="550" d="M141 1485l258 309h248l-325 -309h-181zM168 0v1366h213v-1366h-213z" />
<glyph unicode="&#xce;" horiz-adv-x="550" d="M-43 1499l225 281h187l227 -281h-188l-132 170l-131 -170h-188zM170 0v1366h213v-1366h-213z" />
<glyph unicode="&#xcf;" horiz-adv-x="550" d="M-16 1638q0 54 38 91.5t93 37.5q52 0 89.5 -38t37.5 -91q0 -54 -37.5 -91.5t-91.5 -37.5t-91.5 37.5t-37.5 91.5zM170 0v1366h213v-1366h-213zM311 1638q0 54 37.5 91.5t91.5 37.5q52 0 90.5 -38.5t38.5 -90.5t-38.5 -90.5t-90.5 -38.5q-54 0 -91.5 37.5t-37.5 91.5z" />
<glyph unicode="&#xd0;" horiz-adv-x="1304" d="M47 629v170h123v567h276q174 0 274.5 -16.5t178.5 -57.5q146 -78 232 -242t86 -366q0 -200 -83 -363.5t-223 -240.5q-89 -49 -184 -64.5t-309 -15.5h-248v629h-123zM381 182h111q132 0 199 13.5t128 52.5q85 57 131.5 170.5t46.5 265.5q0 154 -50 267.5t-144 170.5 q-62 39 -129.5 50.5t-233.5 11.5h-59v-385h297v-170h-297v-447z" />
<glyph unicode="&#xd1;" horiz-adv-x="1368" d="M170 0v1366h227l600 -1044v1044h201v-1366h-219l-608 1042v-1042h-201zM352 1540q29 109 78 159t125 50q57 0 147 -41q97 -45 136 -45q35 0 60.5 24t45.5 76l96 -30q-20 -100 -72.5 -158.5t-123.5 -58.5q-61 0 -152 38q-82 37 -98 42.5t-39 5.5q-38 0 -63.5 -24.5 t-34.5 -68.5z" />
<glyph unicode="&#xd2;" horiz-adv-x="1351" d="M88 684q0 318 162 512.5t426 194.5t427 -194.5t163 -510.5q0 -386 -230 -582q-78 -67 -165.5 -98t-200.5 -31q-203 0 -353 129q-229 195 -229 580zM283 1794h262l313 -309h-194zM309 684q0 -241 98.5 -383.5t264.5 -142.5q174 0 273 140.5t99 387.5q0 118 -28.5 222.5 t-81.5 176.5q-43 58 -110.5 90.5t-147.5 32.5q-170 0 -268.5 -140.5t-98.5 -383.5z" />
<glyph unicode="&#xd3;" horiz-adv-x="1351" d="M88 684q0 318 162 512.5t426 194.5t427 -194.5t163 -510.5q0 -386 -230 -582q-78 -67 -165.5 -98t-200.5 -31q-203 0 -353 129q-229 195 -229 580zM309 684q0 -241 98.5 -383.5t264.5 -142.5q174 0 273 140.5t99 387.5q0 118 -28.5 222.5t-81.5 176.5q-43 58 -110.5 90.5 t-147.5 32.5q-170 0 -268.5 -140.5t-98.5 -383.5zM496 1485l313 309h262l-381 -309h-194z" />
<glyph unicode="&#xd4;" horiz-adv-x="1351" d="M88 684q0 318 162 512.5t426 194.5t427 -194.5t163 -510.5q0 -386 -230 -582q-78 -67 -165.5 -98t-200.5 -31q-203 0 -353 129q-229 195 -229 580zM309 684q0 -241 98.5 -383.5t264.5 -142.5q174 0 273 140.5t99 387.5q0 118 -28.5 222.5t-81.5 176.5q-43 58 -110.5 90.5 t-147.5 32.5q-170 0 -268.5 -140.5t-98.5 -383.5zM309 1499l275 281h184l274 -281h-192l-174 170l-172 -170h-195z" />
<glyph unicode="&#xd5;" horiz-adv-x="1351" d="M88 684q0 318 162 512.5t426 194.5t427 -194.5t163 -510.5q0 -386 -230 -582q-78 -67 -165.5 -98t-200.5 -31q-203 0 -353 129q-229 195 -229 580zM309 684q0 -241 98.5 -383.5t264.5 -142.5q174 0 273 140.5t99 387.5q0 118 -28.5 222.5t-81.5 176.5q-43 58 -110.5 90.5 t-147.5 32.5q-170 0 -268.5 -140.5t-98.5 -383.5zM342 1540q29 109 78 159t125 50q57 0 147 -41q97 -45 137 -45q66 0 105 100l96 -30q-19 -100 -71.5 -158.5t-124.5 -58.5q-61 0 -152 38q-82 37 -98 42.5t-39 5.5q-37 0 -62.5 -24.5t-36.5 -68.5z" />
<glyph unicode="&#xd6;" horiz-adv-x="1351" d="M88 684q0 318 162 512.5t426 194.5t427 -194.5t163 -510.5q0 -386 -230 -582q-78 -67 -165.5 -98t-200.5 -31q-203 0 -353 129q-229 195 -229 580zM309 684q0 -241 98.5 -383.5t264.5 -142.5q174 0 273 140.5t99 387.5q0 118 -28.5 222.5t-81.5 176.5q-43 58 -110.5 90.5 t-147.5 32.5q-170 0 -268.5 -140.5t-98.5 -383.5zM354 1638q0 57 40.5 96.5t97.5 39.5q56 0 93.5 -38.5t37.5 -95.5q0 -58 -38.5 -96.5t-95.5 -38.5q-55 0 -95 39.5t-40 93.5zM729 1638q0 58 39 97t96 39t95 -39t38 -95q0 -57 -38.5 -96t-94.5 -39q-57 0 -96 38.5t-39 94.5z " />
<glyph unicode="&#xd7;" horiz-adv-x="1132" d="M162 387l297 297l-291 293l108 108l291 -292l293 292l111 -110l-293 -291l291 -293l-109 -108l-291 290l-297 -297z" />
<glyph unicode="&#xd8;" horiz-adv-x="1351" d="M76 -14l153 211q-75 111 -108 224t-33 263q0 316 162.5 511.5t425.5 195.5q197 0 354 -121l84 108h164l-156 -204q144 -187 144 -496q0 -203 -74.5 -364t-208.5 -251t-303 -90q-200 0 -361 127l-83 -114h-160zM309 676q0 -78 12.5 -141t45.5 -152l540 733 q-101 94 -231 94q-71 0 -136.5 -30t-107.5 -84q-58 -73 -90.5 -184t-32.5 -236zM442 258q58 -55 113.5 -78.5t126.5 -23.5q163 0 262.5 146.5t99.5 385.5q0 84 -13.5 153t-45.5 156z" />
<glyph unicode="&#xd9;" horiz-adv-x="1333" d="M154 569v797h211v-793q0 -130 6.5 -182t29.5 -96q32 -64 102 -99.5t165 -35.5q110 0 183 46t101 134q19 64 19 233v793h211v-797q0 -151 -8.5 -216t-34.5 -124q-56 -120 -179.5 -187t-291.5 -67q-167 0 -291 67t-180 187q-26 61 -34.5 125t-8.5 215zM283 1794h260 l315 -309h-194z" />
<glyph unicode="&#xda;" horiz-adv-x="1333" d="M154 569v797h211v-793q0 -130 6.5 -182t29.5 -96q32 -64 102 -99.5t165 -35.5q110 0 183 46t101 134q19 64 19 233v793h211v-797q0 -151 -8.5 -216t-34.5 -124q-56 -120 -179.5 -187t-291.5 -67q-167 0 -291 67t-180 187q-26 61 -34.5 125t-8.5 215zM479 1485l314 309 h262l-381 -309h-195z" />
<glyph unicode="&#xdb;" horiz-adv-x="1333" d="M154 569v797h211v-793q0 -130 6.5 -182t29.5 -96q32 -64 102 -99.5t165 -35.5q110 0 183 46t101 134q19 64 19 233v793h211v-797q0 -151 -8.5 -216t-34.5 -124q-56 -120 -179.5 -187t-291.5 -67q-167 0 -291 67t-180 187q-26 61 -34.5 125t-8.5 215zM301 1499l274 281 h185l274 -281h-194l-172 170l-172 -170h-195z" />
<glyph unicode="&#xdc;" horiz-adv-x="1333" d="M154 569v797h211v-793q0 -130 6.5 -182t29.5 -96q32 -64 102 -99.5t165 -35.5q110 0 183 46t101 134q19 64 19 233v793h211v-797q0 -151 -8.5 -216t-34.5 -124q-56 -120 -179.5 -187t-291.5 -67q-167 0 -291 67t-180 187q-26 61 -34.5 125t-8.5 215zM346 1638q0 58 39 97 t96 39t95 -39t38 -95q0 -57 -38.5 -96t-94.5 -39q-57 0 -96 38.5t-39 94.5zM719 1638q0 57 39.5 96.5t97.5 39.5q56 0 93.5 -38.5t37.5 -95.5q0 -58 -38 -96.5t-95 -38.5q-56 0 -95.5 39t-39.5 94z" />
<glyph unicode="&#xdd;" horiz-adv-x="1103" d="M10 1366h240l303 -588l303 588h236l-435 -811v-555h-211v555zM371 1485l315 309h260l-381 -309h-194z" />
<glyph unicode="&#xde;" horiz-adv-x="1120" d="M170 0v1366h211v-160h63q156 0 237 -8t146 -31q115 -38 181.5 -140.5t66.5 -242.5q0 -137 -64.5 -237t-176.5 -137q-63 -22 -139 -29.5t-224 -7.5h-90v-373h-211zM381 555h90q108 0 155.5 4t90.5 16q139 42 139 209q0 157 -113 207q-44 20 -99 26.5t-175 6.5h-88v-469z " />
<glyph unicode="&#xdf;" horiz-adv-x="1077" d="M127 0v862q0 172 9.5 237t41.5 122q46 78 135 120.5t205 42.5q169 0 275 -92t106 -241q0 -204 -209 -277q307 -70 307 -385q0 -175 -101 -289t-255 -114q-84 0 -158 39v178q68 -39 133 -39q82 0 128.5 58.5t46.5 160.5q0 145 -86 215q-43 35 -109 58.5t-119 21.5l-20 -2 q-11 0 -21 2v174q16 -2 41 -2q102 0 161.5 50t59.5 136q0 83 -49.5 133t-132.5 50q-129 0 -168 -103q-13 -35 -16.5 -75.5t-3.5 -159.5v-881h-201z" />
<glyph unicode="&#xe0;" horiz-adv-x="1013" d="M90 256q0 101 57 176t166 115q63 25 128 40t237 46v26q0 93 -39 132.5t-131 39.5q-164 0 -191 -133h-194q9 75 34 124.5t72 86.5q50 40 127 63t164 23q122 0 206.5 -39.5t115.5 -111.5q18 -40 24 -88t6 -142v-378q0 -99 6 -146t25 -90h-186q-17 64 -17 121 q-81 -144 -278 -144q-153 0 -242.5 75t-89.5 204zM168 1415h260l238 -309h-156zM297 279q0 -63 46 -102.5t120 -39.5q63 0 113 28.5t75 78.5q27 56 27 174v76q-213 -32 -297 -79.5t-84 -135.5z" />
<glyph unicode="&#xe1;" horiz-adv-x="1013" d="M90 256q0 101 57 176t166 115q63 25 128 40t237 46v26q0 93 -39 132.5t-131 39.5q-164 0 -191 -133h-194q9 75 34 124.5t72 86.5q50 40 127 63t164 23q122 0 206.5 -39.5t115.5 -111.5q18 -40 24 -88t6 -142v-378q0 -99 6 -146t25 -90h-186q-17 64 -17 121 q-81 -144 -278 -144q-153 0 -242.5 75t-89.5 204zM297 279q0 -63 46 -102.5t120 -39.5q63 0 113 28.5t75 78.5q27 56 27 174v76q-213 -32 -297 -79.5t-84 -135.5zM356 1106l238 309h262l-342 -309h-158z" />
<glyph unicode="&#xe2;" horiz-adv-x="1013" d="M90 256q0 101 57 176t166 115q63 25 128 40t237 46v26q0 93 -39 132.5t-131 39.5q-164 0 -191 -133h-194q9 75 34 124.5t72 86.5q50 40 127 63t164 23q122 0 206.5 -39.5t115.5 -111.5q18 -40 24 -88t6 -142v-378q0 -99 6 -146t25 -90h-186q-17 64 -17 121 q-81 -144 -278 -144q-153 0 -242.5 75t-89.5 204zM174 1116l240 299h186l240 -299h-187l-145 184l-146 -184h-188zM297 279q0 -63 46 -102.5t120 -39.5q63 0 113 28.5t75 78.5q27 56 27 174v76q-213 -32 -297 -79.5t-84 -135.5z" />
<glyph unicode="&#xe3;" horiz-adv-x="1013" d="M90 256q0 101 57 176t166 115q63 25 128 40t237 46v26q0 93 -39 132.5t-131 39.5q-164 0 -191 -133h-194q9 75 34 124.5t72 86.5q50 40 127 63t164 23q122 0 206.5 -39.5t115.5 -111.5q18 -40 24 -88t6 -142v-378q0 -99 6 -146t25 -90h-186q-17 64 -17 121 q-81 -144 -278 -144q-153 0 -242.5 75t-89.5 204zM197 1163q51 213 178 213q54 0 137 -41q92 -45 125 -45q57 0 94 101l90 -25q-17 -102 -65 -162.5t-111 -60.5q-49 0 -145 45q-93 43 -123 43q-60 0 -84 -94zM297 279q0 -63 46 -102.5t120 -39.5q63 0 113 28.5t75 78.5 q27 56 27 174v76q-213 -32 -297 -79.5t-84 -135.5z" />
<glyph unicode="&#xe4;" horiz-adv-x="1013" d="M90 256q0 101 57 176t166 115q63 25 128 40t237 46v26q0 93 -39 132.5t-131 39.5q-164 0 -191 -133h-194q9 75 34 124.5t72 86.5q50 40 127 63t164 23q122 0 206.5 -39.5t115.5 -111.5q18 -40 24 -88t6 -142v-378q0 -99 6 -146t25 -90h-186q-17 64 -17 121 q-81 -144 -278 -144q-153 0 -242.5 75t-89.5 204zM203 1268q0 54 35.5 88.5t89.5 34.5q52 0 87.5 -35.5t35.5 -87.5t-36 -88.5t-87 -36.5q-52 0 -88.5 36.5t-36.5 88.5zM297 279q0 -63 46 -102.5t120 -39.5q63 0 113 28.5t75 78.5q27 56 27 174v76q-213 -32 -297 -79.5 t-84 -135.5zM555 1268q0 51 38 88t89 37q50 0 86.5 -37t36.5 -88t-36.5 -88t-88.5 -37q-51 0 -88 37t-37 88z" />
<glyph unicode="&#xe5;" horiz-adv-x="1013" d="M90 256q0 101 57 176t166 115q63 25 128 40t237 46v26q0 93 -39 132.5t-131 39.5q-164 0 -191 -133h-194q9 75 34 124.5t72 86.5q50 40 127 63t164 23q122 0 206.5 -39.5t115.5 -111.5q18 -40 24 -88t6 -142v-378q0 -99 6 -146t25 -90h-186q-17 64 -17 121 q-81 -144 -278 -144q-153 0 -242.5 75t-89.5 204zM297 279q0 -63 46 -102.5t120 -39.5q63 0 113 28.5t75 78.5q27 56 27 174v76q-213 -32 -297 -79.5t-84 -135.5zM311 1280q0 83 58 140t141 57q80 0 137.5 -58t57.5 -139q0 -80 -58.5 -138.5t-138.5 -58.5t-138.5 58.5 t-58.5 138.5zM408 1280q0 -40 30 -70t70 -30q41 0 70.5 30t29.5 70q0 41 -29 70.5t-69 29.5q-43 0 -72.5 -28.5t-29.5 -71.5z" />
<glyph unicode="&#xe6;" horiz-adv-x="1628" d="M90 246q0 163 150.5 253t427.5 95v53q0 104 -36.5 146.5t-125.5 42.5q-154 0 -191 -154h-194q17 154 119 235.5t276 81.5q117 0 187.5 -33.5t117.5 -111.5q66 78 137 111.5t168 33.5q196 0 310 -141.5t114 -386.5v-29h-678q1 -146 72 -225.5t199 -79.5q77 0 126 30t81 99 l182 -14q-31 -128 -134.5 -203.5t-250.5 -75.5q-127 0 -225.5 53.5t-155.5 153.5q-92 -207 -340 -207q-152 0 -244 75t-92 198zM297 260q0 -58 42.5 -93.5t113.5 -35.5q58 0 107 27.5t75 74.5q33 56 33 173v38h-23q-166 0 -257 -48t-91 -136zM883 592h452 q-17 127 -69.5 187.5t-147.5 60.5q-191 0 -235 -248z" />
<glyph unicode="&#xe7;" horiz-adv-x="987" d="M80 483q0 234 121.5 375t322.5 141q164 0 260.5 -89.5t116.5 -258.5h-196q-17 97 -61 141t-124 44q-107 0 -170 -95.5t-63 -257.5t62.5 -254t172.5 -92q85 0 131 49.5t60 153.5h196q-10 -169 -117 -269t-274 -98l-26 -75q89 -15 135.5 -59.5t46.5 -112.5 q0 -82 -58.5 -136.5t-146.5 -54.5q-76 0 -166 49v88q87 -34 121 -34q47 0 77.5 29t30.5 73q0 37 -25 66t-65 36q-6 2 -57 2q-17 0 -31 -2l56 146q-68 19 -107.5 40.5t-79.5 61.5q-143 146 -143 393z" />
<glyph unicode="&#xe8;" horiz-adv-x="1026" d="M80 475q0 238 122 381t324 143q194 0 308 -139t114 -375q0 -25 -2 -43h-663q6 -149 72 -226t186 -77q75 0 123.5 30t80.5 97l181 -12q-40 -135 -141 -208t-250 -73q-206 0 -330.5 137t-124.5 365zM184 1415h260l240 -309h-158zM289 592h452q-27 246 -219 246 q-94 0 -151 -60.5t-82 -185.5z" />
<glyph unicode="&#xe9;" horiz-adv-x="1026" d="M80 475q0 238 122 381t324 143q194 0 308 -139t114 -375q0 -25 -2 -43h-663q6 -149 72 -226t186 -77q75 0 123.5 30t80.5 97l181 -12q-40 -135 -141 -208t-250 -73q-206 0 -330.5 137t-124.5 365zM289 592h452q-27 246 -219 246q-94 0 -151 -60.5t-82 -185.5zM385 1106 l238 309h262l-342 -309h-158z" />
<glyph unicode="&#xea;" horiz-adv-x="1026" d="M80 475q0 238 122 381t324 143q194 0 308 -139t114 -375q0 -25 -2 -43h-663q6 -149 72 -226t186 -77q75 0 123.5 30t80.5 97l181 -12q-40 -135 -141 -208t-250 -73q-206 0 -330.5 137t-124.5 365zM201 1116l239 299h187l239 -299h-186l-145 184l-146 -184h-188zM289 592 h452q-27 246 -219 246q-94 0 -151 -60.5t-82 -185.5z" />
<glyph unicode="&#xeb;" horiz-adv-x="1026" d="M80 475q0 238 122 381t324 143q194 0 308 -139t114 -375q0 -25 -2 -43h-663q6 -149 72 -226t186 -77q75 0 123.5 30t80.5 97l181 -12q-40 -135 -141 -208t-250 -73q-206 0 -330.5 137t-124.5 365zM233 1268q0 54 35.5 88.5t89.5 34.5q52 0 87.5 -35.5t35.5 -87.5 t-36.5 -88.5t-88.5 -36.5q-51 0 -87 36.5t-36 88.5zM289 592h452q-27 246 -219 246q-94 0 -151 -60.5t-82 -185.5zM586 1268q0 51 37.5 88t89.5 37q50 0 86.5 -37t36.5 -88t-37 -88t-88 -37t-88 37t-37 88z" />
<glyph unicode="&#xec;" horiz-adv-x="495" d="M-59 1415h241l183 -309h-150zM145 0v973h205v-973h-205z" />
<glyph unicode="&#xed;" horiz-adv-x="495" d="M131 1106l184 309h240l-274 -309h-150zM145 0v973h205v-973h-205z" />
<glyph unicode="&#xee;" horiz-adv-x="495" d="M-31 1116l187 299h184l186 -299h-174l-104 184l-105 -184h-174zM145 0v973h205v-973h-205z" />
<glyph unicode="&#xef;" horiz-adv-x="495" d="M-27 1268q0 51 36 86t87 35q47 0 83 -37t36 -84q0 -50 -35.5 -85.5t-85.5 -35.5t-85.5 35.5t-35.5 85.5zM145 0v973h205v-973h-205zM283 1268q0 51 36 86t87 35q47 0 82.5 -36.5t35.5 -84.5q0 -49 -36.5 -85t-84.5 -36q-49 0 -84.5 35.5t-35.5 85.5z" />
<glyph unicode="&#xf0;" horiz-adv-x="1067" d="M80 483q0 216 119.5 359t300.5 143q52 0 121 -29l-127 164l-142 -76l-71 91l147 84l-86 104l111 70l102 -107l152 86l69 -96l-149 -82q152 -173 226.5 -282t104 -201.5t29.5 -212.5q0 -236 -122 -380.5t-322 -144.5q-204 0 -333.5 143t-129.5 367zM287 485 q0 -153 69.5 -250.5t178.5 -97.5q107 0 176 97.5t69 250.5q0 155 -66 250.5t-175 95.5q-115 0 -183.5 -94t-68.5 -252z" />
<glyph unicode="&#xf1;" horiz-adv-x="1079" d="M119 973h194q18 -51 21 -133q103 155 293 155q92 0 166.5 -40t109.5 -109q25 -47 32 -99.5t7 -187.5v-559h-201v526q0 89 -5.5 132.5t-20.5 74.5q-43 84 -150 84q-59 0 -109.5 -29.5t-76.5 -80.5q-33 -62 -33 -189v-518h-201v633q0 184 -3 227.5t-23 112.5zM211 1163 q26 109 69 161t109 52q50 0 137 -41q92 -45 125 -45q57 0 94 101l91 -25q-19 -103 -66.5 -163t-110.5 -60q-49 0 -145 45q-62 28 -83.5 35.5t-39.5 7.5q-59 0 -86 -94z" />
<glyph unicode="&#xf2;" horiz-adv-x="1067" d="M80 494q0 220 128.5 362.5t326.5 142.5q199 0 325.5 -144t126.5 -370q0 -224 -127 -368t-325 -144q-201 0 -328 145.5t-127 375.5zM176 1415h262l238 -309h-156zM287 489q0 -160 67.5 -256t180.5 -96q110 0 177.5 95.5t67.5 252.5q0 158 -67.5 254.5t-177.5 96.5 t-179 -96t-69 -251z" />
<glyph unicode="&#xf3;" horiz-adv-x="1067" d="M80 494q0 220 128.5 362.5t326.5 142.5q199 0 325.5 -144t126.5 -370q0 -224 -127 -368t-325 -144q-201 0 -328 145.5t-127 375.5zM287 489q0 -160 67.5 -256t180.5 -96q110 0 177.5 95.5t67.5 252.5q0 158 -67.5 254.5t-177.5 96.5t-179 -96t-69 -251zM383 1106l240 309 h260l-342 -309h-158z" />
<glyph unicode="&#xf4;" horiz-adv-x="1067" d="M80 494q0 220 128.5 362.5t326.5 142.5q199 0 325.5 -144t126.5 -370q0 -224 -127 -368t-325 -144q-201 0 -328 145.5t-127 375.5zM201 1116l239 299h187l239 -299h-186l-145 184l-146 -184h-188zM287 489q0 -160 67.5 -256t180.5 -96q110 0 177.5 95.5t67.5 252.5 q0 158 -67.5 254.5t-177.5 96.5t-179 -96t-69 -251z" />
<glyph unicode="&#xf5;" horiz-adv-x="1067" d="M80 494q0 220 128.5 362.5t326.5 142.5q199 0 325.5 -144t126.5 -370q0 -224 -127 -368t-325 -144q-201 0 -328 145.5t-127 375.5zM233 1163q49 213 179 213q50 0 137 -41q92 -45 125 -45q57 0 94 101l88 -25q-17 -103 -64.5 -163t-111.5 -60q-47 0 -143 45 q-62 28 -83.5 35.5t-39.5 7.5q-61 0 -86 -94zM287 489q0 -160 67.5 -256t180.5 -96q110 0 177.5 95.5t67.5 252.5q0 158 -67.5 254.5t-177.5 96.5t-179 -96t-69 -251z" />
<glyph unicode="&#xf6;" horiz-adv-x="1067" d="M80 494q0 220 128.5 362.5t326.5 142.5q199 0 325.5 -144t126.5 -370q0 -224 -127 -368t-325 -144q-201 0 -328 145.5t-127 375.5zM233 1268q0 54 35 88.5t90 34.5q52 0 87.5 -35.5t35.5 -87.5q0 -51 -36.5 -88t-88.5 -37q-51 0 -87 36.5t-36 88.5zM287 489 q0 -160 67.5 -256t180.5 -96q110 0 177.5 95.5t67.5 252.5q0 158 -67.5 254.5t-177.5 96.5t-179 -96t-69 -251zM586 1268q0 51 37.5 88t89.5 37q49 0 86 -37.5t37 -87.5q0 -51 -37 -88t-88 -37t-88 37t-37 88z" />
<glyph unicode="&#xf7;" horiz-adv-x="1132" d="M102 608v154h928v-154h-928zM444 375q0 51 35.5 86t87.5 35q51 0 85 -35t34 -86q0 -53 -34 -87t-87 -34q-50 0 -85.5 35t-35.5 86zM444 991q0 50 36 85.5t87 35.5q50 0 84.5 -35t34.5 -86q0 -53 -34 -87t-87 -34q-51 0 -86 35t-35 86z" />
<glyph unicode="&#xf8;" horiz-adv-x="1067" d="M20 0l144 166l-8 14q-44 85 -61 150t-17 151q0 226 128 372t326 146q85 0 150 -24t143 -84l76 82h143l-143 -162l6 -20l29 -56q23 -39 37 -110t14 -140q0 -222 -129 -367t-326 -145q-172 0 -290 109l-74 -82h-148zM285 481q0 -83 24 -164l385 441q-24 34 -70 56t-96 22 q-106 0 -174.5 -100.5t-68.5 -254.5zM367 211q43 -41 79.5 -57.5t85.5 -16.5q109 0 178.5 99.5t69.5 255.5q0 79 -28 167z" />
<glyph unicode="&#xf9;" horiz-adv-x="1081" d="M139 393v580h201v-574q0 -131 37 -180q50 -63 145 -63q58 0 105 27t75 77q33 59 33 178v535h201v-674q0 -164 3 -201.5t22 -97.5h-193q-17 49 -20 121q-50 -75 -113.5 -109.5t-153.5 -34.5q-98 0 -177.5 42t-119.5 114q-45 80 -45 260zM203 1415h260l239 -309h-157z" />
<glyph unicode="&#xfa;" horiz-adv-x="1081" d="M139 393v580h201v-574q0 -131 37 -180q50 -63 145 -63q58 0 105 27t75 77q33 59 33 178v535h201v-674q0 -164 3 -201.5t22 -97.5h-193q-17 49 -20 121q-50 -75 -113.5 -109.5t-153.5 -34.5q-98 0 -177.5 42t-119.5 114q-45 80 -45 260zM389 1106l238 309h260l-342 -309 h-156z" />
<glyph unicode="&#xfb;" horiz-adv-x="1081" d="M139 393v580h201v-574q0 -131 37 -180q50 -63 145 -63q58 0 105 27t75 77q33 59 33 178v535h201v-674q0 -164 3 -201.5t22 -97.5h-193q-17 49 -20 121q-50 -75 -113.5 -109.5t-153.5 -34.5q-98 0 -177.5 42t-119.5 114q-45 80 -45 260zM205 1116l239 299h185l239 -299 h-184l-147 184l-146 -184h-186z" />
<glyph unicode="&#xfc;" horiz-adv-x="1081" d="M139 393v580h201v-574q0 -131 37 -180q50 -63 145 -63q58 0 105 27t75 77q33 59 33 178v535h201v-674q0 -164 3 -201.5t22 -97.5h-193q-17 49 -20 121q-50 -75 -113.5 -109.5t-153.5 -34.5q-98 0 -177.5 42t-119.5 114q-45 80 -45 260zM236 1268q0 54 35 88.5t89 34.5 q52 0 87.5 -35.5t35.5 -87.5t-36 -88.5t-87 -36.5q-52 0 -88 36t-36 89zM590 1268q0 52 36 88.5t89 36.5q49 0 87 -37.5t38 -87.5t-38 -87.5t-89 -37.5t-87 36.5t-36 88.5z" />
<glyph unicode="&#xfd;" horiz-adv-x="964" d="M33 973h213l239 -774l246 774h211l-326 -926q-67 -191 -100 -254t-94 -112q-113 -91 -301 -91h-66v177q16 2 37 2l14 -2q55 -5 114.5 16.5t86.5 56.5q33 42 66 131zM338 1106l237 309h263l-342 -309h-158z" />
<glyph unicode="&#xfe;" horiz-adv-x="1083" d="M145 -403v1777h201v-530q91 151 260 151q178 0 288 -140t110 -366q0 -228 -108.5 -370t-281.5 -142q-87 0 -149.5 33.5t-118.5 108.5v-522h-201zM342 481q0 -150 64.5 -242t168.5 -92q106 0 164 88.5t58 249.5q0 158 -59.5 249t-162.5 91q-106 0 -169.5 -93.5 t-63.5 -250.5z" />
<glyph unicode="&#xff;" horiz-adv-x="964" d="M33 973h213l239 -774l246 774h211l-326 -926q-67 -191 -100 -254t-94 -112q-113 -91 -301 -91h-66v177q16 2 37 2l14 -2q55 -5 114.5 16.5t86.5 56.5q33 42 66 131zM180 1268q0 54 35.5 88.5t89.5 34.5q53 0 88 -35.5t35 -87.5t-36 -88.5t-89 -36.5q-51 0 -87 36.5 t-36 88.5zM532 1268q0 51 37.5 88t89.5 37q50 0 86.5 -37t36.5 -88t-37 -88t-88 -37t-88 37t-37 88z" />
<glyph unicode="&#x152;" horiz-adv-x="1939" d="M88 682q0 330 159 519.5t437 189.5q119 0 205 -36.5t158 -119.5v131h804v-182h-594v-385h545v-183h-545v-434h613v-182h-823v131q-75 -83 -160 -119.5t-205 -36.5q-275 0 -434.5 190t-159.5 517zM309 678q0 -243 98.5 -381.5t270.5 -138.5q170 0 269.5 141t99.5 383 q0 239 -99.5 382.5t-265.5 143.5q-177 0 -275 -139t-98 -391z" />
<glyph unicode="&#x153;" horiz-adv-x="1724" d="M80 487q0 227 127.5 369.5t331.5 142.5q230 0 338 -192q75 104 154.5 148t193.5 44q191 0 305.5 -138t114.5 -369v-54h-674q3 -145 71.5 -223t192.5 -78q157 0 211 129l180 -12q-38 -135 -139 -208t-250 -73q-230 0 -363 185q-70 -99 -148 -142t-187 -43q-201 0 -330 144 t-129 370zM287 485q0 -155 69 -251.5t179 -96.5q107 0 175 97t68 251q0 155 -67.5 253t-173.5 98q-114 0 -182 -96t-68 -255zM977 584h461q-12 126 -69 191t-155 65q-193 0 -237 -256z" />
<glyph unicode="&#x178;" horiz-adv-x="1103" d="M10 1366h240l305 -588l301 588h236l-435 -811v-555h-211v555zM229 1638q0 57 40 96.5t98 39.5q55 0 93 -39.5t38 -96.5t-38 -95t-95 -38t-96.5 38.5t-39.5 94.5zM602 1638q0 57 40 96.5t97 39.5t94 -38.5t37 -97.5q0 -57 -37.5 -95t-95.5 -38q-55 0 -95 39.5t-40 93.5z " />
<glyph unicode="&#x2c6;" d="M180 1116l240 299h186l240 -299h-187l-145 184l-147 -184h-187z" />
<glyph unicode="&#x2dc;" d="M201 1161q49 215 178 215q54 0 137 -41q92 -45 125 -45q57 0 94 101l90 -25q-19 -103 -66 -163t-110 -60q-49 0 -145 45q-62 28 -83.5 35.5t-39.5 7.5q-59 0 -86 -94z" />
<glyph unicode="&#x2000;" horiz-adv-x="926" />
<glyph unicode="&#x2001;" horiz-adv-x="1853" />
<glyph unicode="&#x2002;" horiz-adv-x="926" />
<glyph unicode="&#x2003;" horiz-adv-x="1853" />
<glyph unicode="&#x2004;" horiz-adv-x="617" />
<glyph unicode="&#x2005;" horiz-adv-x="463" />
<glyph unicode="&#x2006;" horiz-adv-x="308" />
<glyph unicode="&#x2007;" horiz-adv-x="308" />
<glyph unicode="&#x2008;" horiz-adv-x="231" />
<glyph unicode="&#x2009;" horiz-adv-x="370" />
<glyph unicode="&#x200a;" horiz-adv-x="102" />
<glyph unicode="&#x2010;" horiz-adv-x="546" d="M0 440v150h547v-150h-547z" />
<glyph unicode="&#x2011;" horiz-adv-x="546" d="M0 440v150h547v-150h-547z" />
<glyph unicode="&#x2012;" horiz-adv-x="546" d="M0 440v150h547v-150h-547z" />
<glyph unicode="&#x2013;" d="M115 440v150h792v-150h-792z" />
<glyph unicode="&#x2014;" horiz-adv-x="1241" d="M0 440v150h1241v-150h-1241z" />
<glyph unicode="&#x2018;" horiz-adv-x="428" d="M94 1079q0 143 144 312h120q-47 -47 -82 -116.5t-40 -121.5q61 -3 95 -33.5t34 -83.5q0 -54 -38 -89.5t-94 -35.5q-63 0 -101 46t-38 122z" />
<glyph unicode="&#x2019;" horiz-adv-x="442" d="M78 1264q0 54 37.5 90.5t93.5 36.5q63 0 101 -46.5t38 -121.5q0 -143 -143 -314h-121q49 52 83.5 119.5t39.5 118.5q-61 3 -95 33.5t-34 83.5z" />
<glyph unicode="&#x201a;" horiz-adv-x="442" d="M78 119q0 52 38.5 89.5t92.5 37.5q61 0 100 -47t39 -121q0 -143 -143 -314h-121q50 51 84 118.5t39 119.5q-61 3 -95 33.5t-34 83.5z" />
<glyph unicode="&#x201c;" horiz-adv-x="765" d="M94 1079q0 143 144 312h120q-47 -47 -82 -116.5t-40 -121.5q61 -3 95 -33.5t34 -83.5q0 -54 -38 -89.5t-94 -35.5q-63 0 -101 46t-38 122zM430 1079q0 143 143 312h121q-48 -50 -83 -118.5t-38 -119.5q60 -3 94.5 -34t34.5 -83t-38.5 -88.5t-94.5 -36.5q-63 0 -101 46.5 t-38 121.5z" />
<glyph unicode="&#x201d;" horiz-adv-x="774" d="M63 1264q0 54 38 90.5t94 36.5q63 0 101 -46.5t38 -121.5q0 -141 -144 -314h-120q50 53 84.5 119.5t38.5 118.5q-62 3 -96 34t-34 83zM410 1264q0 54 37.5 90.5t93.5 36.5q63 0 101 -46.5t38 -121.5q0 -146 -143 -314h-119q48 53 82.5 120t38.5 118q-61 3 -95 33.5 t-34 83.5z" />
<glyph unicode="&#x201e;" horiz-adv-x="774" d="M63 119q0 52 39 89.5t93 37.5q61 0 100 -47.5t39 -122.5q0 -140 -144 -312h-120q50 53 84.5 119.5t38.5 118.5q-62 3 -96 34t-34 83zM410 119q0 52 38.5 89.5t92.5 37.5q61 0 100 -47t39 -121q0 -140 -143 -314h-119q48 53 82.5 120t38.5 118q-61 3 -95 33.5t-34 83.5z " />
<glyph unicode="&#x2022;" horiz-adv-x="1366" d="M401 696q0 121 84 205q78 78 203 78q119 0 193 -80q40 -41 64 -96.5t24 -106.5q0 -50 -24 -106t-62 -94q-81 -84 -199 -84t-200.5 82.5t-82.5 201.5z" />
<glyph unicode="&#x2026;" horiz-adv-x="1441" d="M121 119q0 58 41 98.5t100 40.5q57 0 96 -40t39 -99q0 -57 -39.5 -97t-97.5 -40q-57 0 -98 40.5t-41 96.5zM582 119q0 57 41.5 98t99.5 41t96.5 -39.5t38.5 -99.5q0 -59 -39 -98t-98 -39q-56 0 -97.5 41t-41.5 96zM1044 119q0 59 41 99t101 40q57 0 96 -40t39 -97 q0 -58 -40 -98.5t-97 -40.5t-98.5 40.5t-41.5 96.5z" />
<glyph unicode="&#x202f;" horiz-adv-x="370" />
<glyph unicode="&#x2039;" horiz-adv-x="561" d="M61 477l205 498h172l-172 -498l172 -477h-172z" />
<glyph unicode="&#x203a;" horiz-adv-x="561" d="M123 0l172 500l-172 475h172l205 -475l-205 -500h-172z" />
<glyph unicode="&#x205f;" horiz-adv-x="463" />
<glyph unicode="&#x20ac;" horiz-adv-x="1142" d="M31 481l55 127h111q-2 31 -2 43q0 46 4 82h-160l55 127h117q46 265 172.5 393.5t341.5 128.5q268 0 424 -182l-86 -190q-78 109 -153.5 154.5t-178.5 45.5q-183 0 -262 -168q-28 -60 -49 -182h575l-57 -127h-532q-3 -38 -3 -67q0 -28 3 -58h475l-58 -127h-401 q19 -172 93.5 -249.5t221.5 -77.5q135 0 225 57t168 192v-268q-94 -85 -193.5 -121.5t-236.5 -36.5q-147 0 -246.5 53.5t-164.5 166.5q-60 106 -80 284h-178z" />
<glyph unicode="&#x2122;" horiz-adv-x="1650" d="M14 1247v119h588v-119h-221v-700h-143v700h-224zM702 547v819h199l232 -659l233 659h199v-819h-133v643l-228 -643h-143l-227 641v-641h-132z" />
<glyph unicode="&#x25fc;" horiz-adv-x="972" d="M0 0v973h973v-973h-973z" />
</font>
</defs>
</svg>
