<svg id="Layer_1" data-name="Layer 1" xmlns="http://www.w3.org/2000/svg" viewBox="0 0 60 60"><defs><style>.cls-1{fill:#ccc;}</style></defs><title>Artboard 1 copy 2</title><path class="cls-1" d="M20.11,23C20.17,16.35,24,12.5,30.62,12.5c6.12,0,10,3.43,10,8.82,0,4.07-1.43,6.28-14.1,21.38H41v4.8H19.75V43.28l.79-1,3.38-4.12c9.87-11.93,11.3-14,11.3-16.79,0-2.59-1.9-4.28-4.8-4.28-3.38,0-5.39,2-5.7,5.81Z"/><path class="cls-1" d="M30,60A30,30,0,1,1,60,30,30,30,0,0,1,30,60ZM30,3.75A26.25,26.25,0,1,0,56.25,30,26.28,26.28,0,0,0,30,3.75Z"/></svg>