<svg id="Layer_1" data-name="Layer 1" xmlns="http://www.w3.org/2000/svg" viewBox="0 0 149 60"><defs><style>.cls-1{fill:#00aeef;}.cls-2{fill:#ccc;}</style></defs><title>Artboard 5 copy</title><path class="cls-1" d="M22.3,18.54c4.59-.16,7-1.9,7.76-5.81H33.7V47.26H28.42V21.61H22.3Z"/><path class="cls-1" d="M30,60A30,30,0,1,1,60,30,30,30,0,0,1,30,60ZM30,3.75A26.25,26.25,0,1,0,56.25,30,26.28,26.28,0,0,0,30,3.75Z"/><path class="cls-2" d="M109.11,23c.05-6.6,3.91-10.45,10.51-10.45,6.12,0,10,3.43,10,8.82,0,4.07-1.43,6.28-14.1,21.38H130v4.8H108.75V43.28l.79-1,3.38-4.12c9.87-11.93,11.3-14,11.3-16.79,0-2.59-1.9-4.28-4.8-4.28-3.38,0-5.39,2-5.7,5.81Z"/><path class="cls-2" d="M119,60a30,30,0,1,1,30-30A30,30,0,0,1,119,60Zm0-56.25A26.25,26.25,0,1,0,145.25,30,26.28,26.28,0,0,0,119,3.75Z"/></svg>